<?xml version="1.0" encoding="utf-8"?>
<svg version="1.1" xmlns="http://www.w3.org/2000/svg" xmlns:xlink="http://www.w3.org/1999/xlink" viewBox="0 0 18 18" xml:space="preserve">
  <g>
    <path d="M17.5,4.6h-1c-0.3,0-0.5,0.2-0.5,0.5l0,0.2L0.8,1.9C0.4,1.8,0,2.1,0,2.5v10.9c0,0.4,0.4,0.7,0.8,0.6l3.7-0.9
      c0,0,0,0,0,0.1c0.6,1.7,2.2,2.9,4,2.9c2.3,0,4.2-1.9,4.2-4.2c0-0.2,0-0.4,0-0.5c0,0,0,0,0-0.1l3.3-0.8h0v0.3c0,0.3,0.2,0.5,0.5,0.5
      h1c0.3,0,0.5-0.2,0.5-0.5V5.1C18,4.8,17.8,4.6,17.5,4.6z M11.2,11.9c0,1.5-1.2,2.7-2.7,2.7c-1.1,0-2.1-0.7-2.5-1.8l5.2-1.2
      C11.2,11.7,11.2,11.8,11.2,11.9z"/>
  </g>
</svg>
