<svg width="17" height="14" viewBox="0 0 17 14" xmlns="http://www.w3.org/2000/svg"><title>notification-app</title><g fill="#FFF" fill-rule="evenodd"><path d="M13.406 14c.33 0 .594-.264.594-.588v-9.37c0-.324-.26-.586-.587-.59-1.633-.02-6.418-.353-10.97-3.35-.302-.2-.71-.097-.87.227-.788 1.59-2.91 5.433-.34 10.67.154.314.557.416.852.227 1.7-1.094 7.166-3.55 7.906-2.817.808.8 1.432 3.227 1.543 5.043.02.31.278.547.59.547h1.283zM15 7.984c0 .335.248.583.5.5C16.363 8.2 17 7.194 17 6c0-1.195-.637-2.198-1.5-2.484-.252-.083-.5.165-.5.5v3.968z"/></g></svg>
