<?xml version="1.0" encoding="UTF-8" standalone="no"?>
<svg width="17px" height="14px" viewBox="0 0 17 14" version="1.1" xmlns="http://www.w3.org/2000/svg" xmlns:xlink="http://www.w3.org/1999/xlink">
    <!-- Generator: Sketch 40.1 (33804) - http://www.bohemiancoding.com/sketch -->
    <title>notification-app</title>
    <desc>Created with Sketch.</desc>
    <defs></defs>
    <g id="Notification-app" stroke="none" stroke-width="1" fill="none" fill-rule="evenodd">
        <g id="notification-app" transform="translate(-1.000000, -3.000000)" fill="#FFFFFF">
            <g transform="translate(1.000000, 3.000000)">
                <path d="M13.4061385,14 C13.7345439,14 14,13.7363788 14,13.4115599 L14,4.04065134 C14,3.71759772 13.7392948,3.45633032 13.4132648,3.45221124 C11.7795519,3.43220428 6.99540363,3.09855874 2.44404911,0.10222176 C2.14058588,-0.097847873 1.73379076,0.0051291442 1.57344815,0.329359638 C0.784800083,1.91991322 -1.33744136,5.76347157 1.23279121,11 C1.38660134,11.3136386 1.78983329,11.4160271 2.08498246,11.2265494 C3.7840202,10.1332277 9.2508896,7.67603426 9.99143489,8.40981907 C10.7984927,9.20892072 11.4220472,11.6368246 11.5330993,13.4533391 C11.551509,13.7628586 11.8110265,14 12.1233977,14 L13.4061385,14 Z" id="Fill-1"></path>
                <path d="M15,7.98406684 C15,8.31901917 15.2476,8.567284 15.5004,8.48367415 C16.3628,8.19899031 17,7.19464624 17,6 C17,4.80535376 16.3628,3.80152263 15.5004,3.51632585 C15.2476,3.432716 15,3.68098083 15,4.01593316 L15,7.98406684 Z" id="Fill-3"></path>
            </g>
        </g>
    </g>
</svg>